<?xml version="1.0" encoding="UTF-8" standalone="no"?>
<!-- Created with Inkscape (http://www.inkscape.org/) -->

<svg
   xmlns:dc="http://purl.org/dc/elements/1.1/"
   xmlns:cc="http://creativecommons.org/ns#"
   xmlns:rdf="http://www.w3.org/1999/02/22-rdf-syntax-ns#"
   xmlns:svg="http://www.w3.org/2000/svg"
   xmlns="http://www.w3.org/2000/svg"
   xmlns:xlink="http://www.w3.org/1999/xlink"
   xmlns:sodipodi="http://sodipodi.sourceforge.net/DTD/sodipodi-0.dtd"
   xmlns:inkscape="http://www.inkscape.org/namespaces/inkscape"
   version="1.0"
   width="260"
   height="180"
   id="svg2"
   inkscape:version="0.48.2 r9819"
   sodipodi:docname="ModeDial.svg">
  <metadata
     id="metadata75">
    <rdf:RDF>
      <cc:Work
         rdf:about="">
        <dc:format>image/svg+xml</dc:format>
        <dc:type
           rdf:resource="http://purl.org/dc/dcmitype/StillImage" />
        <dc:title></dc:title>
      </cc:Work>
    </rdf:RDF>
  </metadata>
  <sodipodi:namedview
     pagecolor="#ffffff"
     bordercolor="#666666"
     borderopacity="1"
     objecttolerance="10"
     gridtolerance="10"
     guidetolerance="10"
     inkscape:pageopacity="0"
     inkscape:pageshadow="2"
     inkscape:window-width="1366"
     inkscape:window-height="715"
     id="namedview73"
     showgrid="false"
     inkscape:zoom="1.5882706"
     inkscape:cx="127.96614"
     inkscape:cy="123.37235"
     inkscape:window-x="-8"
     inkscape:window-y="-8"
     inkscape:window-maximized="1"
     inkscape:current-layer="svg2" />
  <defs
     id="defs4">
    <linearGradient
       id="linearGradient8559">
      <stop
         id="stop8567"
         style="stop-color:#aeaeae;stop-opacity:1"
         offset="0" />
      <stop
         id="stop8563"
         style="stop-color:#000000;stop-opacity:1"
         offset="1" />
    </linearGradient>
    <linearGradient
       id="linearGradient3216">
      <stop
         id="stop3218"
         style="stop-color:#fafafa;stop-opacity:1"
         offset="0" />
      <stop
         id="stop3220"
         style="stop-color:#e2e2e2;stop-opacity:1"
         offset="1" />
    </linearGradient>
    <linearGradient
       id="linearGradient2208">
      <stop
         id="stop2210"
         style="stop-color:#666666;stop-opacity:1"
         offset="0" />
      <stop
         id="stop2212"
         style="stop-color:#000000;stop-opacity:1"
         offset="1" />
    </linearGradient>
    <linearGradient
       id="linearGradient2799">
      <stop
         id="stop2801"
         style="stop-color:#474747;stop-opacity:1"
         offset="0" />
      <stop
         id="stop2803"
         style="stop-color:#151515;stop-opacity:1"
         offset="1" />
    </linearGradient>
    <mask
       id="mask5856">
      <g
         transform="translate(-20,20)"
         id="g5858">
        <path
           d="m 219.8476,74.44272 -5.58306,0.678593 c 0,0 -1.37208,-1.465766 -1.84766,-1.004043 -0.61238,0.59454 -0.0275,1.782158 -0.0275,1.782158 -0.0131,-0.15791 -3.35474,0.873988 -4.86701,2.23528 -0.61393,0.552647 -1.13114,1.297755 -1.02091,1.856581 0.24763,1.255431 1.62903,2.463741 1.62903,2.463741 l -4.59848,0.84652 2.62356,6.65253 4.29433,-1.31789 11.86476,-1.66685 2.33126,-8.985715 -3.50618,-3.333935 -1.29209,-0.20697 z"
           id="path5860"
           style="fill:#ffffff;fill-opacity:1;fill-rule:evenodd;stroke:none" />
        <path
           d="m 220.41526,74.17078 c -0.49292,-0.839802 -3.38733,-0.741116 -4.72448,-0.560561 0,0 4.01656,-2.152688 6.99527,-2.48226 9.65252,-1.067994 15.0235,13.421301 7.90833,21.968091 -3.56449,4.28167 -15.64942,4.33563 -15.12674,-0.93903 -5.43854,3.45033 -5.38986,3.38217 -5.38986,3.38217 0,0 -3.07976,-5.9899 0.53146,-9.20904 3.29527,-2.93749 8.6396,-1.85792 8.64023,-1.85741 0.0137,-0.72288 -3.90187,0.79915 1.16579,-10.30196 z"
           id="path5862"
           style="fill:#ffffff;fill-opacity:1;fill-rule:evenodd;stroke:#000000;stroke-width:0.71745121;stroke-linecap:butt;stroke-linejoin:miter;stroke-miterlimit:4;stroke-opacity:1;stroke-dasharray:none" />
      </g>
    </mask>
    <linearGradient
       x1="141.41432"
       y1="7.6471686"
       x2="192.52171"
       y2="319.52875"
       id="linearGradient2722"
       xlink:href="#linearGradient3216"
       gradientUnits="userSpaceOnUse" />
    <linearGradient
       x1="141.41432"
       y1="7.6471686"
       x2="192.52171"
       y2="319.52875"
       id="linearGradient2724"
       xlink:href="#linearGradient3216"
       gradientUnits="userSpaceOnUse" />
    <linearGradient
       x1="141.41432"
       y1="7.6471686"
       x2="192.52171"
       y2="319.52875"
       id="linearGradient2730"
       xlink:href="#linearGradient3216"
       gradientUnits="userSpaceOnUse" />
    <linearGradient
       x1="141.41432"
       y1="7.6471686"
       x2="192.52171"
       y2="319.52875"
       id="linearGradient2740"
       xlink:href="#linearGradient3216"
       gradientUnits="userSpaceOnUse" />
    <linearGradient
       x1="310.81561"
       y1="55.203136"
       x2="267.20746"
       y2="298.89551"
       id="linearGradient2742"
       xlink:href="#linearGradient3216"
       gradientUnits="userSpaceOnUse" />
    <linearGradient
       x1="131.12141"
       y1="3.5901532"
       x2="141.48981"
       y2="82.034454"
       id="linearGradient2744"
       xlink:href="#linearGradient8559"
       gradientUnits="userSpaceOnUse"
       gradientTransform="matrix(0.28003846,-1.0451178,1.0451178,0.28003846,7.8793764,225.69513)" />
    <linearGradient
       x1="-359.13593"
       y1="245.19002"
       x2="-359.13593"
       y2="322.33289"
       id="linearGradient2557"
       xlink:href="#linearGradient2208"
       gradientUnits="userSpaceOnUse"
       gradientTransform="matrix(0.4338341,0,0,0.4338341,125.4391,-35.141704)" />
    <linearGradient
       x1="-74.40184"
       y1="9.6002598"
       x2="51.079746"
       y2="584.08411"
       id="linearGradient2560"
       xlink:href="#linearGradient2799"
       gradientUnits="userSpaceOnUse"
       gradientTransform="matrix(0.06095791,-0.2297917,0.2297917,0.06095791,93.747813,112.24275)" />
    <linearGradient
       x1="251.44411"
       y1="14.961058"
       x2="146.77267"
       y2="289.23508"
       id="linearGradient2980"
       xlink:href="#linearGradient3216"
       gradientUnits="userSpaceOnUse"
       gradientTransform="matrix(-0.23410696,-0.59668965,0.59668965,-0.23410696,121.49236,266.94842)" />
    <linearGradient
       x1="141.41432"
       y1="7.6471686"
       x2="192.52171"
       y2="319.52875"
       id="linearGradient2983"
       xlink:href="#linearGradient3216"
       gradientUnits="userSpaceOnUse"
       gradientTransform="matrix(-0.23410696,-0.59668965,0.59668965,-0.23410696,124.88856,269.10527)" />
    <linearGradient
       x1="141.41432"
       y1="7.6471686"
       x2="192.52171"
       y2="319.52875"
       id="linearGradient2986"
       xlink:href="#linearGradient3216"
       gradientUnits="userSpaceOnUse"
       gradientTransform="matrix(-0.23410696,-0.59668965,0.59668965,-0.23410696,128.84682,268.85872)" />
    <linearGradient
       x1="141.41432"
       y1="7.6471686"
       x2="192.52171"
       y2="319.52875"
       id="linearGradient2989"
       xlink:href="#linearGradient3216"
       gradientUnits="userSpaceOnUse"
       gradientTransform="matrix(-0.23410696,-0.59668965,0.59668965,-0.23410696,131.92277,266.33839)" />
    <linearGradient
       x1="141.41432"
       y1="7.6471686"
       x2="192.52171"
       y2="319.52875"
       id="linearGradient2992"
       xlink:href="#linearGradient3216"
       gradientUnits="userSpaceOnUse"
       gradientTransform="matrix(-0.23410696,-0.59668965,0.59668965,-0.23410696,132.9379,262.42135)" />
    <linearGradient
       x1="141.41432"
       y1="7.6471686"
       x2="192.52171"
       y2="319.52875"
       id="linearGradient2995"
       xlink:href="#linearGradient3216"
       gradientUnits="userSpaceOnUse"
       gradientTransform="matrix(-0.23410696,-0.59668965,0.59668965,-0.23410696,131.47778,258.72983)" />
    <linearGradient
       x1="141.41432"
       y1="7.6471686"
       x2="192.52171"
       y2="319.52875"
       id="linearGradient2998"
       xlink:href="#linearGradient3216"
       gradientUnits="userSpaceOnUse"
       gradientTransform="matrix(-0.23410696,-0.59668965,0.59668965,-0.23410696,128.08157,256.57297)" />
    <linearGradient
       x1="141.41432"
       y1="7.6471686"
       x2="192.52171"
       y2="319.52875"
       id="linearGradient3006"
       xlink:href="#linearGradient3216"
       gradientUnits="userSpaceOnUse"
       gradientTransform="matrix(-0.2566333,-0.65410462,0.65410462,-0.2566333,314.58608,210.01609)" />
    <linearGradient
       x1="141.41432"
       y1="7.6471686"
       x2="192.52171"
       y2="319.52875"
       id="linearGradient3008"
       xlink:href="#linearGradient3216"
       gradientUnits="userSpaceOnUse" />
    <linearGradient
       x1="141.41432"
       y1="7.6471686"
       x2="192.52171"
       y2="319.52875"
       id="linearGradient3012"
       xlink:href="#linearGradient3216"
       gradientUnits="userSpaceOnUse"
       gradientTransform="matrix(-0.25150064,-0.6410225,0.6410225,-0.25150064,311.5478,209.08125)" />
    <linearGradient
       x1="141.41432"
       y1="7.6471686"
       x2="192.52171"
       y2="319.52875"
       id="linearGradient3015"
       xlink:href="#linearGradient3216"
       gradientUnits="userSpaceOnUse"
       gradientTransform="matrix(-0.25150064,-0.6410225,0.6410225,-0.25150064,311.5478,209.08125)" />
    <linearGradient
       x1="141.41432"
       y1="7.6471686"
       x2="192.52171"
       y2="319.52875"
       id="linearGradient3018"
       xlink:href="#linearGradient3216"
       gradientUnits="userSpaceOnUse"
       gradientTransform="matrix(-0.25150064,-0.6410225,0.6410225,-0.25150064,311.5478,209.08125)" />
    <linearGradient
       x1="141.41432"
       y1="7.6471686"
       x2="192.52171"
       y2="319.52875"
       id="linearGradient3020"
       xlink:href="#linearGradient3216"
       gradientUnits="userSpaceOnUse" />
    <linearGradient
       x1="141.41432"
       y1="7.6471686"
       x2="192.52171"
       y2="319.52875"
       id="linearGradient3026"
       xlink:href="#linearGradient3216"
       gradientUnits="userSpaceOnUse" />
    <linearGradient
       x1="141.41432"
       y1="7.6471686"
       x2="192.52171"
       y2="319.52875"
       id="linearGradient3029"
       xlink:href="#linearGradient3216"
       gradientUnits="userSpaceOnUse"
       gradientTransform="matrix(-0.23410696,-0.59668965,0.59668965,-0.23410696,121.04737,259.33985)" />
    <linearGradient
       x1="141.41432"
       y1="7.6471686"
       x2="192.52171"
       y2="319.52875"
       id="linearGradient3032"
       xlink:href="#linearGradient3216"
       gradientUnits="userSpaceOnUse"
       gradientTransform="matrix(-0.23410696,-0.59668965,0.59668965,-0.23410696,121.04737,259.33985)" />
    <linearGradient
       x1="141.41432"
       y1="7.6471686"
       x2="192.52171"
       y2="319.52875"
       id="linearGradient3035"
       xlink:href="#linearGradient3216"
       gradientUnits="userSpaceOnUse"
       gradientTransform="translate(3.0701784,-9.6098067)" />
    <linearGradient
       x1="141.41432"
       y1="7.6471686"
       x2="192.52171"
       y2="319.52875"
       id="linearGradient3037"
       xlink:href="#linearGradient3216"
       gradientUnits="userSpaceOnUse"
       gradientTransform="translate(3.0701784,-9.6098067)" />
    <linearGradient
       x1="141.41432"
       y1="7.6471686"
       x2="192.52171"
       y2="319.52875"
       id="linearGradient3039"
       xlink:href="#linearGradient3216"
       gradientUnits="userSpaceOnUse"
       gradientTransform="translate(3.0701784,-9.6098067)" />
    <linearGradient
       x1="141.41432"
       y1="7.6471686"
       x2="192.52171"
       y2="319.52875"
       id="linearGradient3041"
       xlink:href="#linearGradient3216"
       gradientUnits="userSpaceOnUse" />
    <linearGradient
       x1="141.41432"
       y1="7.6471686"
       x2="192.52171"
       y2="319.52875"
       id="linearGradient3044"
       xlink:href="#linearGradient3216"
       gradientUnits="userSpaceOnUse"
       gradientTransform="matrix(-0.23410696,-0.59668965,0.59668965,-0.23410696,120.03225,263.25691)" />
    <linearGradient
       x1="141.41432"
       y1="7.6471686"
       x2="192.52171"
       y2="319.52875"
       id="linearGradient3047"
       xlink:href="#linearGradient3216"
       gradientUnits="userSpaceOnUse"
       gradientTransform="matrix(-0.23410696,-0.59668965,0.59668965,-0.23410696,120.03225,263.25691)" />
    <linearGradient
       x1="141.41432"
       y1="7.6471686"
       x2="192.52171"
       y2="319.52875"
       id="linearGradient3050"
       xlink:href="#linearGradient3216"
       gradientUnits="userSpaceOnUse"
       gradientTransform="matrix(-0.23410696,-0.59668965,0.59668965,-0.23410696,120.03225,263.25691)" />
  </defs>
  <path
     d="m 242.20898,62.662511 c 1.83159,5.063546 6.69757,0.354975 8.05414,5.565916 1.35651,5.210945 -5.18769,3.472811 -4.31772,8.786693 0.86998,5.313879 6.51831,1.579601 6.89425,6.951108 0.37596,5.371485 -5.73748,2.460447 -5.85874,7.843702 -0.12126,5.383255 6.11705,2.750449 5.49959,8.099556 -0.61743,5.349114 -6.09189,1.364294 -7.20026,6.633614 -1.10837,5.26932 5.50753,3.82762 3.91768,8.9722 -1.58983,5.14457 -6.23885,0.22166 -8.29657,5.19761 -2.05773,4.97593 4.71039,4.77446 2.20232,9.53929 -2.50808,4.76486 -6.17336,-0.92849 -9.11038,3.58463 -2.93701,4.5131 3.7529,5.55869 0.41199,9.78155 -3.3409,4.22285 -5.89765,-2.04703 -9.61395,1.84956 -3.71627,3.89658 2.66762,6.15364 -1.39236,9.6907 -4.05998,3.53707 -5.42106,-3.09589 -9.79009,0.0515 -4.36902,3.14738 1.49145,6.53903 -3.14934,9.26986 -4.64076,2.73085 -4.75991,-4.03926 -9.63286,-1.74828 -4.87295,2.29095 0.26451,6.70173 -4.79904,8.53331 -5.06356,1.8316 -3.93666,-4.84512 -9.14759,-3.48855 -5.21097,1.35652 -0.97146,6.63624 -6.28533,7.50622 -5.31388,0.86996 -2.97934,-5.486 -8.35083,-5.11003 -5.37147,0.37596 -2.17431,6.34473 -7.55755,6.22348 -5.38327,-0.12127 -1.92057,-5.94003 -7.26968,-6.55748 -5.3491,-0.61744 -3.30313,5.83719 -8.57245,4.72881 -5.26932,-1.10836 -0.79638,-6.19178 -5.94095,-7.78162 -5.14456,-1.58984 -4.31946,5.13084 -9.2954,3.07312 -4.97594,-2.05774 0.35491,-6.2327 -4.40992,-8.74078 -4.76485,-2.50808 -5.18872,4.24979 -9.70183,1.31277 -4.5131,-2.93703 1.49413,-6.06136 -2.72872,-9.40227 -4.22286,-3.34091 -5.88126,3.224 -9.77784,-0.49228 -3.89658,-3.7163 2.58246,-5.68362 -0.95461,-9.74359 -3.53706,-4.05997 -6.373529,2.08842 -9.520896,-2.28059 -3.147372,-4.36901 3.582846,-5.11231 0.852029,-9.75308 -2.73082,-4.64078 -6.648758,0.88174 -8.939733,-3.99121 -2.290973,-4.87295 4.461226,-4.36691 2.629645,-9.43046 -1.831583,-5.06355 -6.697563,-0.35499 -8.054127,-5.56593 -1.356571,-5.21093 5.187686,-3.47281 4.317714,-8.78669 -0.869971,-5.313886 -6.518299,-1.57962 -6.894252,-6.951106 -0.37596,-5.371486 5.737478,-2.460437 5.858749,-7.843709 0.121251,-5.383243 -6.117071,-2.750436 -5.499612,-8.099558 0.617446,-5.349097 6.091891,-1.364279 7.200264,-6.633601 1.108373,-5.269322 -5.507508,-3.827625 -3.917686,-8.972193 1.589838,-5.144579 6.23886,-0.221677 8.296601,-5.19762 2.057737,-4.975941 -4.710404,-4.774464 -2.202344,-9.539292 2.508086,-4.764857 6.173371,0.928481 9.110389,-3.584628 2.937019,-4.513099 -3.752903,-5.558696 -0.411983,-9.781564 3.340902,-4.222856 5.897642,2.047032 9.613932,-1.849545 3.71629,-3.896585 -2.6676,-6.153646 1.39237,-9.690713 4.05997,-3.537057 5.42107,3.095897 9.79009,-0.0515 4.36901,-3.147365 -1.49144,-6.539033 3.14934,-9.269865 4.64077,-2.73081 4.75991,4.039282 9.63286,1.7483 4.87295,-2.290979 -0.26451,-6.701742 4.79904,-8.5333348 5.06355,-1.8315799 3.93666,4.8451268 9.1476,3.4885658 5.21094,-1.356567 0.97144,-6.6362394 6.28533,-7.5062261 5.31387,-0.8699652 2.97933,5.4859991 8.35082,5.1100335 5.37148,-0.3759494 2.1743,-6.3447367 7.55755,-6.2234747 5.38328,0.1212564 1.92057,5.9400252 7.26969,6.5574683 5.3491,0.617448 3.30311,-5.8371735 8.57244,-4.7288128 5.26931,1.1083763 0.79638,6.1917908 5.94095,7.7816288 5.14457,1.58983 4.31946,-5.1308378 9.2954,-3.073116 4.97594,2.057727 -0.35492,6.232702 4.40993,8.740782 4.76484,2.508073 5.18871,-4.249788 9.70181,-1.312768 4.51311,2.937015 -1.49413,6.061353 2.72873,9.402267 4.22286,3.340902 5.88126,-3.224009 9.77785,0.492282 3.89657,3.716307 -2.58247,5.683617 0.9546,9.743577 3.53706,4.059974 6.37353,-2.088418 9.5209,2.280596 3.14736,4.369005 -3.58285,5.112305 -0.85203,9.753085 2.73084,4.640757 6.64875,-0.881742 8.93973,3.991204 2.29098,4.872948 -4.46124,4.366909 -2.62965,9.430471 z"
     id="path8027"
     style="fill:#000000;fill-opacity:1;stroke:none"
     inkscape:connector-curvature="0" />
  <path
     d="m 108.04732,31.436147 c 32.40113,-32.331913 84.87765,-32.2758774 117.20956,0.125317 32.33194,32.401104 32.27583,84.877616 -0.12528,117.209516 -32.40112,32.33193 -84.87766,32.27583 -117.20957,-0.1253 C 75.590092,116.24457 75.646197,63.768055 108.04732,31.436147 l 0,0 z"
     id="path2176"
     style="fill:#000000;fill-opacity:1;stroke:none"
     inkscape:connector-curvature="0" />
  <path
     d="m 187.16164,12.636475 c 42.78694,11.350299 68.27138,55.237201 56.9211,98.024145 -11.35029,42.78695 -55.23718,68.27136 -98.02413,56.92106 C 103.27166,156.23139 77.787226,112.34448 89.137491,69.5576 100.48782,26.770576 144.3747,1.2861601 187.16164,12.636475 l 0,0 z"
     id="path2216"
     style="opacity:0.8;fill:url(#linearGradient2560);fill-opacity:1;stroke:none"
     inkscape:connector-curvature="0" />
  <path
     d="m 13.264988,84.245094 38.425305,0 c 3.433487,0 6.19763,2.764143 6.19763,6.19763 0,3.433486 -2.764143,6.197629 -6.19763,6.197629 l -38.425305,0 c -3.4334868,0 -6.1976295,-2.764143 -6.1976295,-6.197629 0,-3.433487 2.7641427,-6.19763 6.1976295,-6.19763 z"
     id="rect2206"
     style="fill:url(#linearGradient2557);fill-opacity:1;stroke:none" />
  <path
     d="m 153.43604,151.0451 3.37619,-0.18797 0.55835,-2.155 -11.9298,0.7245 -0.66405,2.56312 10.08984,6.37714 0.5372,-2.07333 -2.87289,-1.75474 0.90515,-3.49367 m -2.33885,2.7738 -2.49011,-1.55105 c -0.60225,-0.36515 -1.32728,-0.72716 -1.9217,-1.05535 l 0.008,-0.0327 c 0.67898,0.002 1.4765,0.0167 2.2008,-0.0221 l 2.93424,-0.16313 -0.73173,2.82433 m -4.73954,-7.93121 6.3017,1.63262 c 3.46103,0.89675 5.30854,-0.38419 5.96839,-2.93099 0.68522,-2.64475 -0.36415,-4.7807 -3.75988,-5.66051 l -6.28535,-1.62846 -0.52027,2.00806 6.41597,1.6623 c 2.15497,0.55828 2.92665,1.68162 2.55024,3.13456 -0.35109,1.35504 -1.57959,1.99493 -3.73456,1.4366 l -6.41597,-1.66233 -0.52026,2.00806 m 14.37039,-10.14462 0.52026,-2.00805 -9.32192,-2.41518 0.82055,-3.16718 -1.68153,-0.43566 -2.15291,8.30971 1.68155,0.43567 0.81209,-3.13452 9.32192,2.41517 m 3.02784,-10.94698 c 0.77825,-3.0039 -0.74828,-5.78613 -4.43786,-6.74207 -3.13452,-0.81214 -6.0577,0.45144 -6.88672,3.65127 -0.80364,3.10185 1.04215,5.86231 4.40518,6.73361 3.21616,0.83329 6.10731,-0.50829 6.91516,-3.6265 l 0.005,-0.016 m -1.59932,-0.48404 c -0.49914,1.92642 -2.63159,2.5586 -4.81918,1.99183 -2.18763,-0.56682 -3.82706,-2.10643 -3.30678,-4.11455 0.52028,-2.00804 2.7458,-2.52899 4.81918,-1.99181 2.30188,0.5964 3.81433,2.15543 3.31101,4.09821 l -0.005,0.0161"
     id="path8031"
     style="font-size:70.14765167px;font-style:normal;font-weight:normal;fill:url(#linearGradient2998);fill-opacity:1;stroke:none;font-family:Myriad Pro Light"
     inkscape:connector-curvature="0" />
  <path
     d="m 133.00862,130.66203 2.56854,-2.11739 -12.72744,-13.73842 -3.42471,2.82318 2.77352,7.42018 c 0.83743,2.14971 1.80966,4.3321 2.71246,6.21223 l -0.0642,0.0529 c -1.68724,-1.30535 -3.54835,-2.64717 -5.45598,-3.91464 l -6.66536,-4.24784 -3.46753,2.85848 10.92949,15.22059 2.4615,-2.02917 -4.46071,-6.06526 c -1.5163,-2.05744 -3.3187,-4.4183 -4.80724,-6.3548 l 0.0428,-0.0353 c 1.86745,1.48034 4.00449,3.02608 6.07847,4.40809 l 7.00813,4.57644 2.012,-1.65863 -3.03326,-7.99694 c -0.8577,-2.34871 -1.86406,-4.79059 -2.84004,-6.93393 l 0.0642,-0.053 c 1.60192,1.98685 3.54402,4.12468 5.16474,5.91629 l 5.13061,5.65685"
     id="path8033"
     style="font-size:28px;font-style:normal;font-weight:normal;fill:url(#linearGradient2995);fill-opacity:1;stroke:none;font-family:Myriad Pro Light"
     inkscape:connector-curvature="0" />
  <path
     d="m 99.502753,102.95334 c 1.030547,0.53182 3.052877,0.95003 4.989087,0.83367 4.65227,-0.27963 6.70708,-2.91311 6.5309,-5.844308 -0.15516,-2.581611 -1.75647,-4.077714 -4.97554,-5.098733 -2.47521,-0.768847 -3.56279,-1.351218 -3.64684,-2.749583 -0.0647,-1.075659 0.75651,-2.231567 2.85407,-2.357651 1.69417,-0.101826 2.9888,0.333152 3.6821,0.642339 l 0.61823,-2.736056 c -0.96868,-0.400587 -2.41981,-0.745185 -4.38291,-0.627185 -3.95307,0.237586 -6.292967,2.618307 -6.113561,5.603298 0.155174,2.581599 2.161481,4.080344 5.236381,4.9481 2.3359,0.696287 3.2987,1.448068 3.38115,2.819535 0.0889,1.479048 -1.03454,2.545164 -3.1321,2.671244 -1.69417,0.10182 -3.3669,-0.33741 -4.45286,-0.89289 l -0.588107,2.78822"
     id="path8035"
     style="font-size:42.83759689px;font-style:normal;font-weight:normal;fill:url(#linearGradient2992);fill-opacity:1;stroke:none;font-family:Myriad Pro Light"
     inkscape:connector-curvature="0" />
  <path
     d="m 116.75868,63.473284 -1.40856,5.388729 3.15135,2.026171 4.8812,-19.073167 -3.74821,-2.40992 -15.26636,12.39597 3.03199,1.949442 4.24958,-3.56209 5.10901,3.284864 m -3.23659,-5.145788 3.73133,-3.071419 c 0.88647,-0.748244 1.83018,-1.690347 2.65389,-2.445974 l 0.0476,0.0309 c -0.34623,1.062614 -0.77358,2.303787 -1.07818,3.459073 l -1.22457,4.683144 -4.13021,-2.655512"
     id="path8037"
     style="font-size:95.21231842px;font-style:normal;font-weight:normal;fill:url(#linearGradient2989);fill-opacity:1;stroke:none;font-family:Myriad Pro Light"
     inkscape:connector-curvature="0" />
  <path
     d="m 133.20014,30.261446 1.19616,3.221643 6.592,-2.447309 c 0.0633,0.487325 0.23356,1.025029 0.45904,1.63241 0.85303,2.297381 2.21861,4.073961 3.97554,4.924022 1.29343,0.631529 2.83376,0.660637 4.48822,0.04644 1.62861,-0.604612 2.74378,-1.799879 3.20468,-3.172849 0.50903,-1.48101 0.36289,-3.379808 -0.51955,-5.756422 -0.80396,-2.165329 -1.55716,-3.718558 -2.20519,-4.830102 l -17.1909,6.382174 m 16.13804,-2.325572 c 0.20501,0.314498 0.5179,0.91944 0.85126,1.817293 0.83341,2.244572 0.3092,4.001621 -1.60378,4.711807 -2.01637,0.748563 -3.75457,-0.288729 -4.6566,-2.718163 -0.24512,-0.660181 -0.40553,-1.171521 -0.43275,-1.642097 l 5.8423,-2.16898"
     id="path8039"
     style="font-size:95.21232605px;font-style:normal;font-weight:normal;fill:url(#linearGradient2986);fill-opacity:1;stroke:none;font-family:Myriad Pro Light"
     inkscape:connector-curvature="0" />
  <path
     d="m 191.73852,32.024336 -3.94479,-2.205358 c -2.11192,-1.077221 -6.00884,0.356747 -7.00145,3.165006 l -4.46307,-1.179732 8.55964,-7.172294 c 0,0 -4.04305,-0.854464 -6.66917,-0.878722 -2.62613,-0.02428 -4.2362,2.311099 -4.68629,4.028329 l -1.20522,4.598158 0.28602,-1.091365 -1.20739,4.606465 c -0.44971,1.715864 -0.1982,4.539784 2.0961,5.806163 2.29428,1.266405 6.23047,2.504668 6.23047,2.504668 l -3.89253,-10.454295 4.43783,1.17307 c -0.53362,2.94134 2.14629,6.099926 4.52255,6.200935 l 4.52035,0.02881 -2.99185,-2.947014 4.20368,-1.630831 -2.87991,-3.472829 4.08495,-1.079197 z"
     id="path8041"
     style="fill:url(#linearGradient2983);fill-opacity:1;fill-rule:evenodd;stroke:none"
     inkscape:connector-curvature="0" />
  <path
     d="m 215.39633,58.89439 -2.1685,-18.615223 -21.96353,18.087259 12.44461,3.138947 -0.39165,-5.489467 12.07907,2.878484 z"
     id="path8043"
     style="fill:url(#linearGradient2980);fill-opacity:1;stroke:none"
     inkscape:connector-curvature="0" />
  <path
     d="m 223.37805,88.739467 c -0.1297,-1.989626 1.37808,-3.707689 3.36768,-3.837387 1.9896,-0.129704 3.70765,1.378046 3.83737,3.367666 0.12969,1.989618 -1.37807,3.707689 -3.36766,3.837391 -1.98961,0.1297 -3.70768,-1.378057 -3.83739,-3.36767 z"
     id="path8047"
     style="fill:url(#linearGradient3050);fill-opacity:1;stroke:none"
     inkscape:connector-curvature="0" />
  <path
     d="m 231.6169,83.348202 c -1.94206,0.890434 -3.51906,-0.502837 -4.99896,-0.406362 -1.4799,0.09648 -2.86264,1.682767 -4.90392,1.051956 -4.08247,-1.261508 -3.41182,-5.888235 -3.41182,-5.888235 l 15.93323,-1.038731 c 0,0 1.26564,4.500468 -2.61849,6.281352 z"
     id="path8049"
     style="fill:url(#linearGradient3047);fill-opacity:1;stroke:none"
     inkscape:connector-curvature="0" />
  <path
     d="m 217.14146,91.394276 c 1.23722,-1.589591 3.53144,-1.875575 5.12102,-0.638339 1.58958,1.237233 -1.75467,0.705927 -2.99189,2.295495 -1.23721,1.589578 0.0988,4.701088 -1.4908,3.463867 -1.58959,-1.237234 -1.87556,-3.531443 -0.63833,-5.121023 z"
     id="path8051"
     style="fill:url(#linearGradient3044);fill-opacity:1;stroke:none"
     inkscape:connector-curvature="0" />
  <path
     d="m 199.8476,94.44272 -5.58306,0.678593 c 0,0 -1.37208,-1.465766 -1.84766,-1.004043 -0.61238,0.59454 -0.0275,1.782158 -0.0275,1.782158 -0.0131,-0.15791 -3.35474,0.873988 -4.86701,2.23528 -0.61393,0.552647 -1.13114,1.297755 -1.02091,1.856581 0.24763,1.255431 1.62903,2.463741 1.62903,2.463741 l -4.59848,0.84652 2.62356,6.65253 4.29433,-1.31789 11.86476,-1.66685 2.33126,-8.985715 -3.50618,-3.333935 -1.29209,-0.20697 z"
     mask="url(#mask5856)"
     id="path8055"
     style="fill:url(#linearGradient3020);fill-opacity:1;fill-rule:evenodd;stroke:none"
     inkscape:connector-curvature="0"
     transform="matrix(-0.50780181,0.479205,-0.479205,-0.50780181,367.34791,80.92052)" />
  <path
     d="m 220.26257,129.13501 c 0.65273,0.19022 2.07524,-1.24688 2.66771,-1.97934 0,0 -0.6288,3.44132 -2.3627,4.61265 -3.7484,2.53222 -11.57818,-1.12059 -12.65794,-8.00726 -0.48539,-3.09583 3.75102,-7.35192 6.24624,-6.13043 1.10827,-4.35825 1.11624,-4.30031 1.11624,-4.30031 0,0 4.4343,1.56585 4.14315,4.93105 -0.26568,3.07077 -3.49689,5.0836 -3.49746,5.08363 0.33946,0.37367 1.59843,-2.27559 4.34478,5.79 z"
     id="path8057"
     style="fill:url(#linearGradient3032);fill-opacity:1;fill-rule:evenodd;stroke:none"
     inkscape:connector-curvature="0" />
  <path
     d="m 221.18711,125.7131 c 0.0682,-0.12804 0.22655,-0.17734 0.35478,-0.10956 0.12803,0.0682 0.1771,0.22675 0.10927,0.35486 -0.0682,0.12804 -0.22656,0.17734 -0.35478,0.10956 -0.12803,-0.0682 -0.17717,-0.22667 -0.10927,-0.35487 l 0,0 z"
     id="path8059"
     style="fill:url(#linearGradient3029);fill-opacity:1;stroke:#000000;stroke-width:0.54549807;stroke-linejoin:round;stroke-miterlimit:4;stroke-opacity:1;stroke-dasharray:none;stroke-dashoffset:0"
     inkscape:connector-curvature="0" />
  <path
     d="m 193.17381,135.11488 -10.24984,13.18589 4.75235,4.51781 -3.6258,0.59019 0.40561,1.54465 6.78524,-0.94572 -5.65094,-5.58872 2.74002,0.4064 c 0.95473,-2.23369 2.72044,-4.17388 4.07388,-4.96286 -1.12391,-0.98829 -1.52854,-1.60222 -1.78997,-3.08631 l 3.87854,-5.06604 -1.31864,-0.59549 z"
     id="path8063"
     style="fill:url(#linearGradient3018);fill-opacity:1;fill-rule:evenodd;stroke:none"
     inkscape:connector-curvature="0" />
  <path
     d="m 182.0407,147.3453 -3.62753,-3.95198 0.92091,-1.29632 7.38202,-0.76523 -1.16062,1.53704 -3.96148,0.31594 -0.44058,0.95529 1.87198,2.05814 -0.98467,1.14714 z"
     id="path8065"
     style="fill:url(#linearGradient3015);fill-opacity:1;fill-rule:evenodd;stroke:none"
     inkscape:connector-curvature="0" />
  <path
     d="m 192.02472,145.66206 -2.06041,2.81191 2.46241,3.55702 4.38526,-10.40952 -0.91333,-0.13546 -2.68175,5.09516 -1.19218,-0.91911 z"
     id="path8067"
     style="fill:url(#linearGradient3012);fill-opacity:1;fill-rule:evenodd;stroke:none"
     inkscape:connector-curvature="0" />
  <path
     d="m 181.69626,149.27285 c 0.78231,-0.30693 1.66529,0.0784 1.97222,0.86073 0.30694,0.7823 -0.0784,1.66528 -0.86073,1.97222 -0.78229,0.30693 -1.66529,-0.0784 -1.97221,-0.86073 -0.30693,-0.78229 0.0784,-1.6653 0.86072,-1.97222 z"
     id="path8069"
     style="fill:url(#linearGradient3006);fill-opacity:1;stroke:none"
     inkscape:connector-curvature="0" />
  <path
     d="m 187.34983,12.62485 c 42.7903,11.465625 68.18398,55.448738 56.71834,98.23905 -11.46563,42.7903 -55.44875,68.18397 -98.23906,56.71834 C 103.03882,156.11661 77.645152,112.13349 89.110783,69.343181 100.5764,26.552884 144.55954,1.1592124 187.34983,12.62485 z"
     id="path8168"
     style="fill:none;stroke:url(#linearGradient2744);stroke-width:0.47091341;stroke-linejoin:round;stroke-miterlimit:4;stroke-opacity:1;stroke-dashoffset:0"
     inkscape:connector-curvature="0" />
</svg>
