<?xml version="1.0" encoding="utf-8"?>
<!-- Generator: Adobe Illustrator 16.0.0, SVG Export Plug-In . SVG Version: 6.00 Build 0)  -->
<!DOCTYPE svg PUBLIC "-//W3C//DTD SVG 1.1//EN" "http://www.w3.org/Graphics/SVG/1.1/DTD/svg11.dtd">
<svg version="1.1" id="svg2457" xmlns:svg="http://www.w3.org/2000/svg"
	 xmlns="http://www.w3.org/2000/svg" xmlns:xlink="http://www.w3.org/1999/xlink" x="0px" y="0px" width="368px" height="295px"
	 viewBox="0 0 368 295" enable-background="new 0 0 368 295" xml:space="preserve">
<rect id="rect3238" x="5" y="4" width="358" height="141"/>
<path id="Oval" fill="#D2232A" stroke="#FFFFFF" stroke-width="6" d="M174.89,16.574c-43.543,1.318-87.996,6.199-128.198,25.042
	c-12.487,6.58-27.859,15.312-30.535,31.272c-1.114,14.532,11.678,24.505,22.263,31.016c33.401,18.947,71.714,24.85,109.052,28.25
	c51.75,3.54,104.778,0.712,154.37-15.959c17.138-6.593,36.655-14.029,46.846-31.424c6.392-11.432-0.997-24.861-10.17-31.668
	c-23.702-18.5-53.396-25.197-81.798-30.656C229.721,17.862,202.263,16.103,174.89,16.574z"/>
<text transform="matrix(1 0 0 1 55.8333 98.0913)" fill="#FFFFFF" font-family="'Arial-BoldMT'" font-size="65">BORING</text>
<text transform="matrix(1 0 0 1 90.3499 214.7891)" font-family="'Arial-BoldMT'" font-size="75">LOW</text>
<text transform="matrix(1 0 0 1 9.9719 282.7891)" font-family="'Arial-BoldMT'" font-size="75">VOLTAGE</text>
</svg>
