<?xml version="1.0" encoding="UTF-8" standalone="no"?>
<!-- Created with Inkscape (http://www.inkscape.org/) -->
<svg xmlns:dc="http://purl.org/dc/elements/1.1/" xmlns:cc="http://creativecommons.org/ns#" xmlns:rdf="http://www.w3.org/1999/02/22-rdf-syntax-ns#" xmlns:svg="http://www.w3.org/2000/svg" xmlns="http://www.w3.org/2000/svg" xmlns:xlink="http://www.w3.org/1999/xlink" xmlns:sodipodi="http://sodipodi.sourceforge.net/DTD/sodipodi-0.dtd" xmlns:inkscape="http://www.inkscape.org/namespaces/inkscape" version="1.0" width="260" height="180" id="svg2" inkscape:version="0.48.2 r9819" sodipodi:docname="action mode.svg">
  <metadata id="metadata75">
    <rdf:RDF>
      <cc:Work rdf:about="">
        <dc:format>image/svg+xml</dc:format>
        <dc:type rdf:resource="http://purl.org/dc/dcmitype/StillImage"/>
        <dc:title/>
      </cc:Work>
    </rdf:RDF>
  </metadata>
  <sodipodi:namedview pagecolor="#ffffff" bordercolor="#666666" borderopacity="1" objecttolerance="10" gridtolerance="10" guidetolerance="10" inkscape:pageopacity="0" inkscape:pageshadow="2" inkscape:window-width="1366" inkscape:window-height="715" id="namedview73" showgrid="false" inkscape:zoom="1.5882706" inkscape:cx="127.96614" inkscape:cy="123.37235" inkscape:window-x="-8" inkscape:window-y="-8" inkscape:window-maximized="1" inkscape:current-layer="svg2"/>
  <defs id="defs4">
    <linearGradient id="linearGradient8559">
      <stop id="stop8567" style="stop-color:#aeaeae;stop-opacity:1" offset="0"/>
      <stop id="stop8563" style="stop-color:#000000;stop-opacity:1" offset="1"/>
    </linearGradient>
    <linearGradient id="linearGradient3216">
      <stop id="stop3218" style="stop-color:#fafafa;stop-opacity:1" offset="0"/>
      <stop id="stop3220" style="stop-color:#e2e2e2;stop-opacity:1" offset="1"/>
    </linearGradient>
    <linearGradient id="linearGradient2208">
      <stop id="stop2210" style="stop-color:#666666;stop-opacity:1" offset="0"/>
      <stop id="stop2212" style="stop-color:#000000;stop-opacity:1" offset="1"/>
    </linearGradient>
    <linearGradient id="linearGradient2799">
      <stop id="stop2801" style="stop-color:#474747;stop-opacity:1" offset="0"/>
      <stop id="stop2803" style="stop-color:#151515;stop-opacity:1" offset="1"/>
    </linearGradient>
    <mask id="mask5856">
      <g transform="translate(-20,20)" id="g5858">
        <path d="m 219.8476,74.44272 -5.58306,0.678593 c 0,0 -1.37208,-1.465766 -1.84766,-1.004043 -0.61238,0.59454 -0.0275,1.782158 -0.0275,1.782158 -0.0131,-0.15791 -3.35474,0.873988 -4.86701,2.23528 -0.61393,0.552647 -1.13114,1.297755 -1.02091,1.856581 0.24763,1.255431 1.62903,2.463741 1.62903,2.463741 l -4.59848,0.84652 2.62356,6.65253 4.29433,-1.31789 11.86476,-1.66685 2.33126,-8.985715 -3.50618,-3.333935 -1.29209,-0.20697 z" id="path5860" style="fill:#ffffff;fill-opacity:1;fill-rule:evenodd;stroke:none"/>
        <path d="m 220.41526,74.17078 c -0.49292,-0.839802 -3.38733,-0.741116 -4.72448,-0.560561 0,0 4.01656,-2.152688 6.99527,-2.48226 9.65252,-1.067994 15.0235,13.421301 7.90833,21.968091 -3.56449,4.28167 -15.64942,4.33563 -15.12674,-0.93903 -5.43854,3.45033 -5.38986,3.38217 -5.38986,3.38217 0,0 -3.07976,-5.9899 0.53146,-9.20904 3.29527,-2.93749 8.6396,-1.85792 8.64023,-1.85741 0.0137,-0.72288 -3.90187,0.79915 1.16579,-10.30196 z" id="path5862" style="fill:#ffffff;fill-opacity:1;fill-rule:evenodd;stroke:#000000;stroke-width:0.71745121;stroke-linecap:butt;stroke-linejoin:miter;stroke-miterlimit:4;stroke-opacity:1;stroke-dasharray:none"/>
      </g>
    </mask>
    <linearGradient x1="141.41432" y1="7.6471686" x2="192.52171" y2="319.52875" id="linearGradient2722" xlink:href="#linearGradient3216" gradientUnits="userSpaceOnUse"/>
    <linearGradient x1="141.41432" y1="7.6471686" x2="192.52171" y2="319.52875" id="linearGradient2724" xlink:href="#linearGradient3216" gradientUnits="userSpaceOnUse"/>
    <linearGradient x1="141.41432" y1="7.6471686" x2="192.52171" y2="319.52875" id="linearGradient2730" xlink:href="#linearGradient3216" gradientUnits="userSpaceOnUse"/>
    <linearGradient x1="141.41432" y1="7.6471686" x2="192.52171" y2="319.52875" id="linearGradient2740" xlink:href="#linearGradient3216" gradientUnits="userSpaceOnUse"/>
    <linearGradient x1="310.81561" y1="55.203136" x2="267.20746" y2="298.89551" id="linearGradient2742" xlink:href="#linearGradient3216" gradientUnits="userSpaceOnUse"/>
    <linearGradient x1="131.12141" y1="3.5901532" x2="141.48981" y2="82.034454" id="linearGradient2744" xlink:href="#linearGradient8559" gradientUnits="userSpaceOnUse" gradientTransform="matrix(0.93702698,-0.5409928,0.5409928,0.93702698,-41.573845,73.695543)"/>
    <linearGradient x1="-359.13593" y1="245.19002" x2="-359.13593" y2="322.33289" id="linearGradient2557" xlink:href="#linearGradient2208" gradientUnits="userSpaceOnUse" gradientTransform="matrix(0.4338341,0,0,0.4338341,125.4391,-35.141704)"/>
    <linearGradient x1="-74.40184" y1="9.6002598" x2="51.079746" y2="584.08411" id="linearGradient2560" xlink:href="#linearGradient2799" gradientUnits="userSpaceOnUse" gradientTransform="matrix(0.20559105,-0.1193835,0.1193835,0.20559105,99.367262,54.190769)"/>
    <linearGradient x1="251.44411" y1="14.961058" x2="146.77267" y2="289.23508" id="linearGradient2980" xlink:href="#linearGradient3216" gradientUnits="userSpaceOnUse" gradientTransform="matrix(0.25638468,-0.58746191,0.58746191,0.25638468,9.5921952,183.20254)"/>
    <linearGradient x1="141.41432" y1="7.6471686" x2="192.52171" y2="319.52875" id="linearGradient2983" xlink:href="#linearGradient3216" gradientUnits="userSpaceOnUse" gradientTransform="matrix(0.25638468,-0.58746191,0.58746191,0.25638468,10.468551,187.12916)"/>
    <linearGradient x1="141.41432" y1="7.6471686" x2="192.52171" y2="319.52875" id="linearGradient2986" xlink:href="#linearGradient3216" gradientUnits="userSpaceOnUse" gradientTransform="matrix(0.25638468,-0.58746191,0.58746191,0.25638468,13.441791,189.75371)"/>
    <linearGradient x1="141.41432" y1="7.6471686" x2="192.52171" y2="319.52875" id="linearGradient2989" xlink:href="#linearGradient3216" gradientUnits="userSpaceOnUse" gradientTransform="matrix(0.25638468,-0.58746191,0.58746191,0.25638468,17.398941,190.14659)"/>
    <linearGradient x1="141.41432" y1="7.6471686" x2="192.52171" y2="319.52875" id="linearGradient2992" xlink:href="#linearGradient3216" gradientUnits="userSpaceOnUse" gradientTransform="matrix(0.25638468,-0.58746191,0.58746191,0.25638468,20.886521,188.09464)"/>
    <linearGradient x1="141.41432" y1="7.6471686" x2="192.52171" y2="319.52875" id="linearGradient2995" xlink:href="#linearGradient3216" gradientUnits="userSpaceOnUse" gradientTransform="matrix(0.25638468,-0.58746191,0.58746191,0.25638468,22.464343,184.45189)"/>
    <linearGradient x1="141.41432" y1="7.6471686" x2="192.52171" y2="319.52875" id="linearGradient2998" xlink:href="#linearGradient3216" gradientUnits="userSpaceOnUse" gradientTransform="matrix(0.25638468,-0.58746191,0.58746191,0.25638468,21.588019,180.52526)"/>
    <linearGradient x1="141.41432" y1="7.6471686" x2="192.52171" y2="319.52875" id="linearGradient3006" xlink:href="#linearGradient3216" gradientUnits="userSpaceOnUse" gradientTransform="matrix(0.28105468,-0.64398895,0.64398895,0.28105468,186.38729,279.48318)"/>
    <linearGradient x1="141.41432" y1="7.6471686" x2="192.52171" y2="319.52875" id="linearGradient3008" xlink:href="#linearGradient3216" gradientUnits="userSpaceOnUse"/>
    <linearGradient x1="141.41432" y1="7.6471686" x2="192.52171" y2="319.52875" id="linearGradient3012" xlink:href="#linearGradient3216" gradientUnits="userSpaceOnUse" gradientTransform="matrix(0.27543355,-0.63110916,0.63110916,0.27543355,184.89994,276.67377)"/>
    <linearGradient x1="141.41432" y1="7.6471686" x2="192.52171" y2="319.52875" id="linearGradient3015" xlink:href="#linearGradient3216" gradientUnits="userSpaceOnUse" gradientTransform="matrix(0.27543355,-0.63110916,0.63110916,0.27543355,184.89994,276.67377)"/>
    <linearGradient x1="141.41432" y1="7.6471686" x2="192.52171" y2="319.52875" id="linearGradient3018" xlink:href="#linearGradient3216" gradientUnits="userSpaceOnUse" gradientTransform="matrix(0.27543355,-0.63110916,0.63110916,0.27543355,184.89994,276.67377)"/>
    <linearGradient x1="141.41432" y1="7.6471686" x2="192.52171" y2="319.52875" id="linearGradient3020" xlink:href="#linearGradient3216" gradientUnits="userSpaceOnUse"/>
    <linearGradient x1="141.41432" y1="7.6471686" x2="192.52171" y2="319.52875" id="linearGradient3026" xlink:href="#linearGradient3216" gradientUnits="userSpaceOnUse"/>
    <linearGradient x1="141.41432" y1="7.6471686" x2="192.52171" y2="319.52875" id="linearGradient3029" xlink:href="#linearGradient3216" gradientUnits="userSpaceOnUse" gradientTransform="matrix(0.25638468,-0.58746191,0.58746191,0.25638468,14.65761,177.50781)"/>
    <linearGradient x1="141.41432" y1="7.6471686" x2="192.52171" y2="319.52875" id="linearGradient3032" xlink:href="#linearGradient3216" gradientUnits="userSpaceOnUse" gradientTransform="matrix(0.25638468,-0.58746191,0.58746191,0.25638468,14.65761,177.50781)"/>
    <linearGradient x1="141.41432" y1="7.6471686" x2="192.52171" y2="319.52875" id="linearGradient3035" xlink:href="#linearGradient3216" gradientUnits="userSpaceOnUse" gradientTransform="translate(3.0701784,-9.6098067)"/>
    <linearGradient x1="141.41432" y1="7.6471686" x2="192.52171" y2="319.52875" id="linearGradient3037" xlink:href="#linearGradient3216" gradientUnits="userSpaceOnUse" gradientTransform="translate(3.0701784,-9.6098067)"/>
    <linearGradient x1="141.41432" y1="7.6471686" x2="192.52171" y2="319.52875" id="linearGradient3039" xlink:href="#linearGradient3216" gradientUnits="userSpaceOnUse" gradientTransform="translate(3.0701784,-9.6098067)"/>
    <linearGradient x1="141.41432" y1="7.6471686" x2="192.52171" y2="319.52875" id="linearGradient3041" xlink:href="#linearGradient3216" gradientUnits="userSpaceOnUse"/>
    <linearGradient x1="141.41432" y1="7.6471686" x2="192.52171" y2="319.52875" id="linearGradient3044" xlink:href="#linearGradient3216" gradientUnits="userSpaceOnUse" gradientTransform="matrix(0.25638468,-0.58746191,0.58746191,0.25638468,11.170025,179.55979)"/>
    <linearGradient x1="141.41432" y1="7.6471686" x2="192.52171" y2="319.52875" id="linearGradient3047" xlink:href="#linearGradient3216" gradientUnits="userSpaceOnUse" gradientTransform="matrix(0.25638468,-0.58746191,0.58746191,0.25638468,11.170025,179.55979)"/>
    <linearGradient x1="141.41432" y1="7.6471686" x2="192.52171" y2="319.52875" id="linearGradient3050" xlink:href="#linearGradient3216" gradientUnits="userSpaceOnUse" gradientTransform="matrix(0.25638468,-0.58746191,0.58746191,0.25638468,11.170025,179.55979)"/>
  </defs>
  <path d="m 239.40368,124.11012 c -2.28536,4.87561 4.48489,4.9869 1.75946,9.63084 -2.72549,4.64391 -6.12389,-1.21262 -9.26622,3.16003 -3.14231,4.37269 3.49214,5.72612 -0.0402,9.79015 -3.53239,4.06408 -5.79682,-2.31719 -9.68913,1.40361 -3.89226,3.72076 2.38055,6.27026 -1.83843,9.61604 -4.21899,3.34581 -5.27233,-3.34292 -9.78204,-0.40068 -4.50971,2.94222 1.1879,6.60093 -3.57407,9.11452 -4.76196,2.51356 -4.56826,-4.2548 -9.54184,-2.19129 -4.97355,2.06348 -0.0453,6.70679 -5.188,8.30256 -5.14277,1.59578 -3.7087,-5.02177 -8.97673,-3.9073 -5.26801,1.11445 -1.2769,6.5843 -6.6253,7.20793 -5.34835,0.62362 -2.7228,-5.61773 -8.10591,-5.49027 -5.38311,0.12751 -2.46498,6.23759 -7.8369,5.86784 -5.37196,-0.36976 -1.64413,-6.0224 -6.95906,-6.88624 -5.3149,-0.86382 -3.56918,5.67841 -8.78171,4.32786 -5.2125,-1.35054 -0.50957,-6.22197 -5.57524,-8.04768 -5.06562,-1.82576 -4.5518,4.92588 -9.4274,2.64051 -4.87561,-2.28533 0.64238,-6.20966 -4.00153,-8.93507 -4.64392,-2.72551 -5.37947,4.00558 -9.75209,0.8633 -4.37264,-3.14235 1.77245,-5.98593 -2.2916,-9.51828 -4.06404,-3.53234 -6.02388,2.94894 -9.74469,-0.94334 -3.72077,-3.89229 2.84223,-5.55829 -0.50357,-9.77729 -3.34579,-4.21896 -6.463181,1.79185 -9.405426,-2.71785 -2.942221,-4.50968 3.815131,-4.94136 1.301573,-9.70333 -2.513601,-4.76193 -6.682384,0.57373 -8.745882,-4.39981 -2.063476,-4.97357 4.658159,-4.15622 3.062391,-9.29892 -1.595772,-5.14276 -6.674057,-0.66393 -7.788498,-5.932 -1.114467,-5.26801 5.34253,-3.22948 4.718918,-8.577894 -0.623642,-5.348386 -6.438404,-1.878963 -6.565903,-7.262062 -0.127464,-5.383107 5.845038,-2.192872 6.21475,-7.564781 0.369757,-5.371891 -5.983502,-3.030004 -5.119652,-8.344908 0.863815,-5.314866 6.148398,-1.081479 7.498955,-6.293985 1.350508,-5.212513 -5.324897,-4.077895 -3.499167,-9.143536 1.825745,-5.065676 6.242436,0.0667 8.527813,-4.808886 2.285345,-4.875594 -4.484895,-4.986905 -1.759438,-9.630845 2.725411,-4.643962 6.123913,1.212567 9.266216,-3.16005 3.14234,-4.372664 -3.492172,-5.72609 0.0402,-9.790143 3.53236,-4.064089 5.79678,2.317212 9.68907,-1.403584 3.89228,-3.720765 -2.38057,-6.270271 1.83842,-9.616069 4.21901,-3.34578 5.27235,3.34292 9.78204,0.400695 4.50972,-2.942254 -1.18785,-6.600944 3.57409,-9.114528 4.76193,-2.513571 4.5683,4.254796 9.54186,2.191328 4.97354,-2.06349 0.0453,-6.7068111 5.188,-8.3026156 5.14273,-1.5957636 3.70869,5.0217576 8.97673,3.9073166 5.26802,-1.114449 1.27689,-6.5842789 6.6253,-7.2079407 5.3484,-0.6236115 2.72278,5.6177525 8.10589,5.4902786 5.3831,-0.1274872 2.46501,-6.2375748 7.83691,-5.8678493 5.37191,0.3697749 1.64415,6.0224369 6.95908,6.8862444 5.3149,0.863822 3.56919,-5.6784088 8.7817,-4.3278684 5.2125,1.3505065 0.50957,6.2219584 5.57522,8.0476774 5.06569,1.825734 4.55181,-4.9258725 9.42741,-2.640515 4.87559,2.285326 -0.64238,6.209625 4.00155,8.935088 4.64392,2.725495 5.37946,-4.005614 9.75212,-0.863301 4.37262,3.142306 -1.77248,5.985919 2.29158,9.518278 4.06404,3.532351 6.02387,-2.948938 9.74468,0.943331 3.72079,3.89229 -2.8422,5.558282 0.50357,9.777274 3.3458,4.218961 6.46318,-1.79185 9.40542,2.717865 2.94222,4.509715 -3.81513,4.941376 -1.30156,9.703299 2.51358,4.761954 6.68237,-0.573691 8.74587,4.399819 2.06347,4.973589 -4.65814,4.156254 -3.06238,9.298979 1.59578,5.142734 6.67403,0.663911 7.78847,5.931953 1.11449,5.268015 -5.34252,3.229528 -4.71888,8.577876 0.62363,5.348405 6.43838,1.878989 6.56589,7.262093 0.12747,5.383103 -5.84501,2.192829 -6.21477,7.564752 -0.36975,5.371934 5.98351,3.03005 5.11968,8.344944 -0.86383,5.31485 -6.14839,1.08148 -7.49895,6.29398 -1.35051,5.21251 5.32488,4.07789 3.49915,9.14357 -1.82573,5.06564 -6.24245,-0.0667 -8.52782,4.80887 z" id="path8027" style="fill:#000000;fill-opacity:1;stroke:none" inkscape:connector-curvature="0"/>
  <path d="m 166.61745,7.1631406 c 45.77316,0.048936 82.84005,37.1950604 82.79104,82.9682884 -0.0489,45.773181 -37.19508,82.839991 -82.9682,82.791051 C 120.66708,172.87358 83.600256,135.72738 83.649166,89.954193 83.698076,44.181028 120.84427,7.1142092 166.61745,7.1631406 l 0,0 z" id="path2176" style="fill:#000000;fill-opacity:1;stroke:none" inkscape:connector-curvature="0"/>
  <path d="m 235.85308,49.812024 c 22.22906,38.280837 9.21658,87.333756 -29.06423,109.562836 -38.28082,22.22908 -87.33373,9.21657 -109.562804,-29.06424 C 74.996974,92.029773 88.009484,42.976831 126.29024,20.747813 164.57112,-1.4812755 213.62402,11.531224 235.85308,49.812024 l 0,0 z" id="path2216" style="opacity:0.8;fill:url(#linearGradient2560);fill-opacity:1;stroke:none" inkscape:connector-curvature="0"/>
  <path d="m 13.264988,84.245094 38.425305,0 c 3.433487,0 6.19763,2.764143 6.19763,6.19763 0,3.433486 -2.764143,6.197629 -6.19763,6.197629 l -38.425305,0 c -3.4334868,0 -6.1976295,-2.764143 -6.1976295,-6.197629 0,-3.433487 2.7641427,-6.19763 6.1976295,-6.19763 z" id="rect2206" style="fill:url(#linearGradient2557);fill-opacity:1;stroke:none"/>
  <path d="m 114.13581,123.83412 2.52022,2.25441 1.91866,-1.12899 -8.94795,-7.92338 -2.28195,1.34289 2.62528,11.64392 1.84595,-1.0862 -0.79066,-3.27223 3.11046,-1.83036 m -3.61519,0.30754 -0.664,-2.85751 c -0.16766,-0.68407 -0.42435,-1.45272 -0.61261,-2.10509 l 0.0289,-0.017 c 0.4787,0.48153 1.03222,1.05584 1.57182,1.54058 l 2.19017,1.95944 -2.51452,1.47971 m 2.25687,-8.95957 3.30152,5.6104 c 1.81324,3.08144 4.02537,3.48207 6.29281,2.14778 2.35467,-1.38556 3.12299,-3.63796 1.34395,-6.66123 l -3.29292,-5.59592 -1.78779,1.05203 3.36133,5.71221 c 1.12905,1.91856 0.88037,3.25854 -0.41317,4.01977 -1.2064,0.70991 -2.52755,0.29367 -3.65656,-1.62491 l -3.36134,-5.71221 -1.7878,1.05204 m 17.33471,2.9881 1.78779,-1.05204 -4.8838,-8.29939 2.81977,-1.65929 -0.88099,-1.49712 -7.39816,4.35357 0.88097,1.49707 2.79069,-1.64215 4.8838,8.29937 m 9.88169,-5.59965 c 2.67441,-1.57375 3.56229,-4.62052 1.62934,-7.90541 -1.64216,-2.79071 -4.60268,-3.96422 -7.4515,-2.28783 -2.76156,1.62512 -3.40836,4.88223 -1.64645,7.87635 1.68493,2.86339 4.67794,3.95911 7.45408,2.3254 l 0.0149,-0.008 m -0.78863,-1.47315 c -1.7151,1.00926 -3.67001,-0.0516 -4.81612,-1.99925 -1.14607,-1.94767 -1.21665,-4.1956 0.57119,-5.24766 1.78777,-1.05203 3.72985,0.15327 4.81609,1.99925 1.20596,2.04937 1.17301,4.22126 -0.55662,5.23911 l -0.0149,0.008" id="path8031" style="font-size:70.14765167px;font-style:normal;font-weight:normal;fill:url(#linearGradient2998);fill-opacity:1;stroke:none;font-family:Myriad Pro Light" inkscape:connector-curvature="0"/>
  <path d="m 114.10442,94.976736 3.31348,0.318999 0.71488,-18.714191 -4.41793,-0.425343 -3.28569,7.208049 c -0.92793,2.112217 -1.78362,4.342882 -2.47472,6.310719 l -0.0828,-0.0081 c -0.27005,-2.116085 -0.63724,-4.380892 -1.08989,-6.626017 l -1.70945,-7.716799 -4.47317,-0.430659 -3.034247,18.490915 3.175377,0.305679 1.13458,-7.442977 c 0.38265,-2.527028 0.77756,-5.470887 1.09429,-7.892767 l 0.0551,0.0054 c 0.27374,2.367244 0.69184,4.971363 1.18114,7.415136 l 1.71946,8.191519 2.59554,0.249875 3.50983,-7.799555 c 1.05431,-2.267256 2.06937,-4.705562 2.89482,-6.911224 l 0.0829,0.008 c -0.27221,2.537631 -0.41059,5.422559 -0.53144,7.835475 l -0.3721,7.627837" id="path8033" style="font-size:28px;font-style:normal;font-weight:normal;fill:url(#linearGradient2995);fill-opacity:1;stroke:none;font-family:Myriad Pro Light" inkscape:connector-curvature="0"/>
  <path d="m 110.00523,51.691507 c 0.35264,1.104738 1.48691,2.83048 2.93831,4.117296 3.48737,3.091961 6.80249,2.68278 8.75061,0.485533 1.71575,-1.935237 1.64134,-4.125407 0.0871,-7.123608 -1.20658,-2.293899 -1.56382,-3.474729 -0.63447,-4.522952 0.71487,-0.806376 2.11291,-1.04301 3.68527,0.351004 1.26996,1.125943 1.87781,2.348984 2.1494,3.057865 l 2.37186,-1.49753 c -0.4017,-0.96823 -1.18414,-2.238 -2.6557,-3.542687 -2.96323,-2.627243 -6.30122,-2.598369 -8.28507,-0.360801 -1.71574,1.935187 -1.35684,4.413649 0.20385,7.201518 1.15936,2.144096 1.30859,3.356471 0.39712,4.38455 -0.98298,1.108715 -2.53124,1.068143 -4.10358,-0.325893 -1.26997,-1.125945 -2.14217,-2.619358 -2.51729,-3.78001 l -2.38742,1.555732" id="path8035" style="font-size:42.83759689px;font-style:normal;font-weight:normal;fill:url(#linearGradient2992);fill-opacity:1;stroke:none;font-family:Myriad Pro Light" inkscape:connector-curvature="0"/>
  <path d="m 150.12363,35.976672 -4.80645,2.814379 0.79563,3.661057 16.93832,-10.035229 -0.94633,-4.354446 -19.56024,-2.029676 0.76549,3.522408 5.52369,0.486112 1.28986,5.935398 m 1.35003,-5.927261 4.81026,0.46662 c 1.15592,0.0977 2.48938,0.0989 3.60613,0.147017 l 0.0117,0.05539 c -0.99622,0.506579 -2.17603,1.082064 -3.20833,1.68357 l -4.17741,2.445544 -1.04277,-4.798235" id="path8037" style="font-size:95.21231842px;font-style:normal;font-weight:normal;fill:url(#linearGradient2989);fill-opacity:1;stroke:none;font-family:Myriad Pro Light" inkscape:connector-curvature="0"/>
  <path d="m 185.23384,24.118222 -1.43229,3.123889 6.39179,2.930697 c -0.29986,0.389376 -0.55965,0.889952 -0.82972,1.478891 -1.0213,2.227684 -1.31191,4.449525 -0.67067,6.29294 0.46805,1.361178 1.53663,2.470902 3.14086,3.206464 1.57911,0.724101 3.21285,0.667448 4.50958,0.02249 1.40718,-0.687273 2.6465,-2.133272 3.70303,-4.437759 0.96264,-2.099621 1.52833,-3.730506 1.85608,-4.974736 l -16.66867,-7.642894 m 13.05573,9.766884 c -0.0774,0.36735 -0.28391,1.016351 -0.68306,1.886933 -0.99786,2.176479 -2.61093,3.048238 -4.4658,2.197702 -1.95511,-0.896464 -2.45071,-2.859039 -1.37068,-5.214725 0.29351,-0.640175 0.54166,-1.115161 0.85514,-1.46714 L 198.29,33.88526" id="path8039" style="font-size:95.21232605px;font-style:normal;font-weight:normal;fill:url(#linearGradient2986);fill-opacity:1;stroke:none;font-family:Myriad Pro Light" inkscape:connector-curvature="0"/>
  <path d="m 225.38014,66.757645 -1.22996,-4.348817 c -0.73164,-2.255039 -4.50117,-3.996617 -7.18877,-2.71276 l -2.32168,-3.990053 11.12414,0.981034 c 0,0 -2.25465,-3.463077 -4.09445,-5.337184 -1.83978,-1.874139 -4.62965,-1.361273 -6.16218,-0.465241 l -4.10362,2.399112 0.97405,-0.569296 -4.11101,2.403529 c -1.53113,0.895543 -3.35026,3.069981 -2.62345,5.587761 0.72681,2.517761 2.63458,6.17665 2.63458,6.17665 l 4.63988,-10.144757 2.30854,3.967498 c -2.45713,1.702513 -2.79562,5.830962 -1.18677,7.58265 l 3.17601,3.216734 -0.0317,-4.199398 4.12566,1.819262 0.41924,-4.492065 3.65162,2.125359 z" id="path8041" style="fill:url(#linearGradient2983);fill-opacity:1;fill-rule:evenodd;stroke:none" inkscape:connector-curvature="0"/>
  <path d="m 223.10872,102.48625 11.6296,-14.696307 -28.32017,-2.740929 6.58009,11.019233 3.60468,-4.15856 6.5058,10.576563 z" id="path8043" style="fill:url(#linearGradient2980);fill-opacity:1;stroke:none" inkscape:connector-curvature="0"/>
  <path d="m 207.64901,129.23385 c 1.31517,-1.49858 3.59617,-1.64727 5.09477,-0.33214 1.49855,1.31516 1.64723,3.59613 0.33212,5.09473 -1.31518,1.49859 -3.59619,1.6473 -5.09477,0.33214 -1.49855,-1.31515 -1.64728,-3.59615 -0.33212,-5.09473 z" id="path8047" style="fill:url(#linearGradient3050);fill-opacity:1;stroke:none" inkscape:connector-curvature="0"/>
  <path d="m 217.28696,131.24739 c -2.00289,-0.74362 -2.13279,-2.84392 -3.24748,-3.82214 -1.11468,-0.97819 -3.21406,-0.83429 -4.21142,-2.72375 -1.99473,-3.77876 1.7511,-6.57614 1.7511,-6.57614 l 12.00101,10.53201 c 0,0 -2.28739,4.07727 -6.29316,2.59003 z" id="path8049" style="fill:url(#linearGradient3047);fill-opacity:1;stroke:none" inkscape:connector-curvature="0"/>
  <path d="m 201.36188,126.70113 c 1.99881,-0.24915 3.8233,1.17087 4.07243,3.16976 0.24916,1.99883 -1.7399,-0.74161 -3.73873,-0.49244 -1.99882,0.24916 -3.2543,3.39402 -3.5035,1.39515 -0.24914,-1.99883 1.1709,-3.8233 3.1698,-4.07247 z" id="path8051" style="fill:url(#linearGradient3044);fill-opacity:1;stroke:none" inkscape:connector-curvature="0"/>
  <path d="m 199.8476,94.44272 -5.58306,0.678593 c 0,0 -1.37208,-1.465766 -1.84766,-1.004043 -0.61238,0.59454 -0.0275,1.782158 -0.0275,1.782158 -0.0131,-0.15791 -3.35474,0.873988 -4.86701,2.23528 -0.61393,0.552647 -1.13114,1.297755 -1.02091,1.856581 0.24763,1.255431 1.62903,2.463741 1.62903,2.463741 l -4.59848,0.84652 2.62356,6.65253 4.29433,-1.31789 11.86476,-1.66685 2.33126,-8.985715 -3.50618,-3.333935 -1.29209,-0.20697 z" mask="url(#mask5856)" id="path8055" style="fill:url(#linearGradient3020);fill-opacity:1;fill-rule:evenodd;stroke:none" inkscape:connector-curvature="0" transform="matrix(-0.69791919,-0.02022096,0.02022096,-0.69791919,314.97989,225.50709)"/>
  <path d="m 176.88208,155.59484 c 0.32703,0.59603 2.34906,0.58574 3.28594,0.48674 0,0 -2.87799,1.98876 -4.93231,1.59095 -4.44106,-0.86 -7.39465,-8.97941 -3.28853,-14.6125 1.84586,-2.53229 7.85098,-2.5462 8.75163,0.0819 3.86543,-2.2981 3.83007,-2.25148 3.83007,-2.25148 0,0 2.02831,4.24275 -0.55712,6.41643 -2.35921,1.98349 -6.06732,1.12196 -6.06773,1.12157 -0.0242,0.50424 2.73932,-0.47886 -1.02193,7.16636 z" id="path8057" style="fill:url(#linearGradient3032);fill-opacity:1;fill-rule:evenodd;stroke:none" inkscape:connector-curvature="0"/>
  <path d="m 179.95547,153.82891 c 0.13873,-0.0423 0.2856,0.0348 0.32835,0.17341 0.0423,0.13874 -0.0351,0.28556 -0.17364,0.32817 -0.13875,0.0424 -0.28561,-0.0348 -0.32833,-0.17341 -0.0424,-0.13874 0.035,-0.28555 0.17366,-0.32818 l 0,0 z" id="path8059" style="fill:url(#linearGradient3029);fill-opacity:1;stroke:#000000;stroke-width:0.54549807;stroke-linejoin:round;stroke-miterlimit:4;stroke-opacity:1;stroke-dasharray:none;stroke-dashoffset:0" inkscape:connector-curvature="0"/>
  <path d="m 153.499,140.66859 -16.57156,2.07609 0.16586,6.55499 -2.98116,-2.14649 -0.80543,1.37904 5.46664,4.12917 -0.044,-7.94764 1.65008,2.22488 c 2.2546,-0.90441 4.87506,-1.02777 6.38998,-0.62864 -0.0959,-1.49355 0.0521,-2.21377 0.91665,-3.44804 l 6.32478,-0.83967 -0.51135,-1.3535 z" id="path8063" style="fill:url(#linearGradient3018);fill-opacity:1;fill-rule:evenodd;stroke:none" inkscape:connector-curvature="0"/>
  <path d="m 136.97851,141.4445 0.22941,-5.35952 1.56785,-0.26545 5.76096,4.67878 -1.90754,0.26616 -3.02457,-2.57779 -0.98705,0.36396 -0.13163,2.77898 -1.50744,0.11488 z" id="path8065" style="fill:url(#linearGradient3015);fill-opacity:1;fill-rule:evenodd;stroke:none" inkscape:connector-curvature="0"/>
  <path d="m 145.22851,147.31402 -3.44526,0.53143 -0.774,4.25638 10.46149,-4.25981 -0.55005,-0.74158 -5.4991,1.70651 -0.19308,-1.49293 z" id="path8067" style="fill:url(#linearGradient3012);fill-opacity:1;fill-rule:evenodd;stroke:none" inkscape:connector-curvature="0"/>
  <path d="m 135.372,142.56393 c 0.77019,0.33613 1.12208,1.23297 0.7859,2.00321 -0.33613,0.77019 -1.23297,1.12208 -2.00321,0.78594 -0.77017,-0.33612 -1.12208,-1.23297 -0.7859,-2.00318 0.3361,-0.77022 1.23298,-1.12213 2.00321,-0.78597 z" id="path8069" style="fill:url(#linearGradient3006);fill-opacity:1;stroke:none" inkscape:connector-curvature="0"/>
  <path d="m 235.99436,49.936885 c 22.1499,38.364742 9.00519,87.421545 -29.35957,109.571415 -38.36472,22.14991 -87.4215,9.00517 -109.571435,-29.35958 C 74.913494,91.783984 88.058204,42.727198 126.42298,20.57728 164.78768,-1.5725881 213.8445,11.572128 235.99436,49.936885 z" id="path8168" style="fill:none;stroke:url(#linearGradient2744);stroke-width:0.47091341;stroke-linejoin:round;stroke-miterlimit:4;stroke-opacity:1;stroke-dashoffset:0" inkscape:connector-curvature="0"/>
</svg>